<?xml version="1.0" encoding="UTF-8" standalone="no"?>
<svg width="32px" height="26px" viewBox="0 0 32 26" version="1.1" xmlns="http://www.w3.org/2000/svg" xmlns:xlink="http://www.w3.org/1999/xlink">
    <!-- Generator: Sketch 3.8.2 (29753) - http://www.bohemiancoding.com/sketch -->
    <title>Community</title>
    <desc>Created with Sketch.</desc>
    <defs></defs>
    <g id="Symbols" stroke="none" stroke-width="1" fill="none" fill-rule="evenodd">
        <g id="Header" transform="translate(-1155.000000, -46.000000)" fill="#CBCFD6">
            <g id="Community" transform="translate(1155.438192, 46.000000)">
                <g id="Group">
                    <path d="M28.5150686,8.46424849 C27.5307388,8.46424849 26.73158,9.25686524 26.73158,10.2300901 C26.73158,11.2030029 27.5307388,11.9959316 28.5150686,11.9959316 C29.4956258,11.9959316 30.2944702,11.2030029 30.2944702,10.2300901 C30.2944702,9.25686524 29.4956258,8.46424849 28.5150686,8.46424849 L28.5150686,8.46424849 Z" id="Shape"></path>
                    <path d="M2.92689564,8.46424849 C1.94256586,8.46424849 1.14340703,9.25686524 1.14340703,10.2300901 C1.14340703,11.2030029 1.94256586,11.9959316 2.92689564,11.9959316 C3.90745284,11.9959316 4.70661167,11.2030029 4.70661167,10.2300901 C4.70661167,9.25686524 3.90745284,8.46424849 2.92689564,8.46424849 L2.92689564,8.46424849 Z" id="Shape"></path>
                    <path d="M23.2180477,5.25198275 C21.7568005,5.25198275 20.5715807,6.4317059 20.5715807,7.88187326 C20.5715807,9.33016903 21.7568005,10.5080206 23.2180477,10.5080206 C24.6796092,10.5080206 25.8686016,9.33016903 25.8686016,7.88187326 C25.8682872,6.4317059 24.6796092,5.25198275 23.2180477,5.25198275 L23.2180477,5.25198275 Z" id="Shape"></path>
                    <path d="M31.4381916,21.2334571 L28.4204396,21.2334571 L28.4204396,15.7222597 C28.4204396,14.7736774 28.140011,13.8946558 27.6895017,13.1301128 C27.95484,13.0530659 28.2274091,12.9984779 28.5150686,12.9984779 C30.1243896,12.9984779 31.4381916,14.3020377 31.4381916,15.9025558 L31.4381916,21.2334571 L31.4381916,21.2334571 Z" id="Shape"></path>
                    <path d="M8.22014397,5.25198275 C6.75858244,5.25198275 5.56959003,6.4317059 5.56959003,7.88187326 C5.56959003,9.33016903 6.75826806,10.5080206 8.22014397,10.5080206 C9.67793291,10.5080206 10.8666109,9.33016903 10.8666109,7.88187326 C10.8666109,6.4317059 9.67793291,5.25198275 8.22014397,5.25198275 L8.22014397,5.25198275 Z" id="Shape"></path>
                    <path d="M2.92689564,12.9984779 C3.2145551,12.9984779 3.48366602,13.0530659 3.74837559,13.1301128 C3.29409372,13.8946558 3.01775202,14.7736774 3.01775202,15.7222597 L3.01775202,21.2334571 L0,21.2334571 L0,15.9025558 C0,14.3023496 1.31380203,12.9984779 2.92689564,12.9984779 L2.92689564,12.9984779 Z" id="Shape"></path>
                    <path d="M15.7172095,0 C13.5589777,0 11.8022115,1.74307059 11.8022115,3.88447711 C11.8022115,6.02775522 13.5589777,7.7726974 15.7172095,7.7726974 C17.8754414,7.7726974 19.6359801,6.02775522 19.6359801,3.88447711 C19.6359801,1.74307059 17.8754414,0 15.7172095,0 L15.7172095,0 Z" id="Shape"></path>
                    <path d="M27.4508858,23.2847156 L22.8278997,23.2847156 L22.8278997,14.8996976 C22.8278997,13.7464885 22.521063,12.6737577 22.0249683,11.7120744 C22.4037985,11.6013389 22.8014916,11.5224203 23.2177333,11.5224203 C25.5501327,11.5224203 27.4508858,13.4064837 27.4508858,15.7225716 L27.4508858,23.2847156 L27.4508858,23.2847156 Z" id="Shape"></path>
                    <path d="M8.60651934,14.8996976 L8.60651934,23.2850275 L3.98699146,23.2850275 L3.98699146,15.7222597 C3.98699146,13.4061718 5.88397195,11.5221084 8.22014397,11.5221084 C8.63638563,11.5221084 9.03030617,11.6010269 9.40882199,11.7117624 C8.91335609,12.6737577 8.60651934,13.7461766 8.60651934,14.8996976 L8.60651934,14.8996976 Z" id="Shape"></path>
                    <path d="M9.57575879,25.7118509 L21.8586603,25.7118509 L21.8586603,14.8996976 C21.8586603,11.5392646 19.1018452,8.8061249 15.7172095,8.8061249 C12.3284869,8.8061249 9.57575879,11.5392646 9.57575879,14.8996976 L9.57575879,25.7118509 L9.57575879,25.7118509 Z" id="Shape"></path>
                </g>
            </g>
        </g>
    </g>
</svg>