<?xml version="1.0" encoding="UTF-8" standalone="no"?>
<svg width="23px" height="30px" viewBox="0 0 23 30" version="1.1" xmlns="http://www.w3.org/2000/svg" xmlns:xlink="http://www.w3.org/1999/xlink">
    <!-- Generator: Sketch 3.8.2 (29753) - http://www.bohemiancoding.com/sketch -->
    <title>Families</title>
    <desc>Created with Sketch.</desc>
    <defs></defs>
    <g id="Symbols" stroke="none" stroke-width="1" fill="none" fill-rule="evenodd" opacity="0.351445896">
        <g id="Header" transform="translate(-846.000000, -44.000000)" fill="#6A758A">
            <g id="Families" transform="translate(846.000000, 44.000000)">
                <ellipse id="Oval" cx="6.86416124" cy="3.01620986" rx="2.87269876" ry="2.87269876"></ellipse>
                <path d="M15.184436,11.9461831 L13.1030588,8.47268684 L13.1194704,8.53316634 C12.5211808,7.38971733 11.3688186,6.52763703 9.85805008,6.52763703 L3.78939973,6.52388815 C1.75479804,6.52388815 0.119048077,8.18240555 0.119048077,10.2522865 L0.119048077,15.0675025 L0.103928044,16.5480322 C0.103928044,17.9427338 1.23483887,19.0723537 2.62824946,19.0723537 L2.62824946,11.0070885 L3.54085289,11.0070885 L3.54085289,28.2660717 L3.54085289,29.711297 C5.38741305,29.711297 6.39463398,28.2143569 6.39463398,26.3689883 L6.39463398,25.1434619 L6.39463398,18.2419276 L7.36396741,18.2419276 L7.36396741,26.3689884 L7.38283632,29.711297 C9.22822882,29.711297 10.5016984,28.214357 10.5016984,26.3689884 L10.5016984,11.0070885 L11.6717864,11.0171681 L12.8418504,12.9306617 C13.4754194,12.3626361 14.285661,12.0029383 15.184436,11.9461831 L15.184436,11.9461831 Z" id="Shape"></path>
                <path d="M19.7433824,13.2171941 L15.9504834,13.2133207 L15.425485,13.2133207 C14.6719746,13.2133207 14.0017105,13.536449 13.5258198,14.050202 C13.0866484,14.5235108 12.814069,15.1596615 12.814069,15.8664963 L12.814069,19.2920752 L12.8026979,20.3459477 C12.8026979,21.3380474 13.6078991,22.1419584 14.6,22.1419584 L14.6,16.4041825 L15.3131656,16.4041825 L15.3674635,16.4041825 L15.3674635,16.4937344 L15.3674635,28.682624 L15.3674635,29.711297 C16.682543,29.711297 17.1104917,28.6460533 17.1104917,27.3332826 L17.1104917,26.4611221 L17.1104917,24.2574729 L17.8917836,24.2574729 L17.8917836,27.3332826 L17.9056121,29.711297 C19.2182344,29.711297 19.8039883,28.6460533 19.8039883,27.3332826 L19.8039883,16.4041825 L20.6054394,16.4041825 L20.6054394,19.4409653 L20.6054394,20.3623568 L20.6054394,22.1596603 C21.597539,22.1596603 22.3876215,21.355626 22.3876215,20.3623568 L22.3876215,19.7956228 L22.3876215,19.4409653 L22.3876215,15.9043826 C22.3876215,14.5462518 21.3324586,13.2171941 19.7433824,13.2171941 L19.7433824,13.2171941 Z" id="Shape"></path>
                <path d="M16.3607302,11.9221492 C16.7217196,12.1430391 17.1407318,12.2780995 17.5951478,12.2780995 C18.0470058,12.2780995 18.4660155,12.1443294 18.8257146,11.9234408 C19.5035016,11.5081787 19.9592079,10.7660394 19.9592079,9.91274782 C19.9592079,8.60774723 18.9014619,7.54997799 17.5951477,7.54997799 C16.2900232,7.54997799 15.2311115,8.60774723 15.2311115,9.91274782 C15.2311116,10.7647479 15.685403,11.5055969 16.3607302,11.9221492 L16.3607302,11.9221492 Z" id="Shape"></path>
            </g>
        </g>
    </g>
</svg>