<?xml version="1.0" encoding="UTF-8" standalone="no"?>
<svg width="35px" height="25px" viewBox="0 0 35 25" version="1.1" xmlns="http://www.w3.org/2000/svg" xmlns:xlink="http://www.w3.org/1999/xlink">
    <!-- Generator: Sketch 3.8.2 (29753) - http://www.bohemiancoding.com/sketch -->
    <title>Student</title>
    <desc>Created with Sketch.</desc>
    <defs></defs>
    <g id="Symbols" stroke="none" stroke-width="1" fill="none" fill-rule="evenodd" opacity="0.351445896">
        <g id="Header" transform="translate(-676.000000, -47.000000)" fill="#6A758A">
            <g id="Student" transform="translate(676.000000, 47.000000)">
                <polygon id="Shape" points="27.9957692 18.1080769 30.3146154 16.8957692 30.3146154 11.5430769 27.9957692 12.7811538"></polygon>
                <path d="M17.3073077,18.3396154 C17.1238462,18.3396154 16.9419231,18.295 16.775,18.2061538 L5.42884615,12.1457692 L5.42884615,17.46 L17.3073077,23.6946154 L24.045,20.1726923 L24.045,14.8919231 L17.8392308,18.2061538 C17.6726923,18.295 17.49,18.3396154 17.3073077,18.3396154 L17.3073077,18.3396154 Z" id="Shape"></path>
                <path d="M26.4203846,11.7792308 L19.8207692,8.29807692 C19.8415385,7.59692308 19.4823077,6.91038462 18.8223077,6.55615385 C18.5353846,6.40153846 18.2257692,6.32807692 17.9215385,6.32807692 C17.2403846,6.32807692 16.5807692,6.69384615 16.2369231,7.33576923 C15.7376923,8.26461538 16.0876923,9.42269231 17.0165385,9.92153846 C17.3007692,10.0738462 17.6061538,10.1457692 17.9069231,10.1457692 C18.3046154,10.1457692 18.6942308,10.0207692 19.0203846,9.78961538 L25.1738462,13.0319231 L25.1738462,24.0003846 C25.1738462,24.4676923 25.5526923,24.8469231 26.0203846,24.8469231 C26.4880769,24.8469231 26.8665385,24.4676923 26.8665385,24.0003846 L26.8665385,12.525 C26.8669231,12.2130769 26.6957692,11.9265385 26.4203846,11.7792308 L26.4203846,11.7792308 Z" id="Shape"></path>
                <path d="M17.3073077,0.225 L0.35,8.15346154 L17.3073077,17.2107692 L23.9561538,13.6592308 L19.0130769,11.0673077 C18.6634615,11.2038462 18.2896154,11.275 17.9069231,11.275 C17.4130769,11.275 16.9207692,11.1511538 16.4830769,10.9165385 C15.7676923,10.5326923 15.245,9.89307692 15.0103846,9.11653846 C14.7765385,8.33923077 14.8580769,7.51846154 15.2419231,6.80307692 C15.7719231,5.81423077 16.7988462,5.20038462 17.9215385,5.20038462 C18.4196154,5.20038462 18.9153846,5.32615385 19.3557692,5.56192308 C20.1496154,5.98807692 20.6965385,6.72923077 20.8807692,7.58692308 L26.9538462,10.7846154 C27.3130769,10.9769231 27.5919231,11.2730769 27.7723077,11.6215385 L34.265,8.15384615 L17.3073077,0.225 L17.3073077,0.225 Z" id="Shape"></path>
            </g>
        </g>
    </g>
</svg>