<?xml version="1.0" encoding="UTF-8" standalone="no"?>
<svg width="20px" height="23px" viewBox="0 0 20 23" version="1.1" xmlns="http://www.w3.org/2000/svg" xmlns:xlink="http://www.w3.org/1999/xlink">
    <!-- Generator: Sketch 3.8.2 (29753) - http://www.bohemiancoding.com/sketch -->
    <title>Apple</title>
    <desc>Created with Sketch.</desc>
    <defs></defs>
    <g id="Symbols" stroke="none" stroke-width="1" fill="none" fill-rule="evenodd" opacity="0.351445896">
        <g id="Header" transform="translate(-999.000000, -48.000000)" fill="#6A758A">
            <path d="M1011.75283,54.1814194 L1011.75337,54.1814194 C1013.55848,54.1814194 1015.67968,52.5794454 1018.05823,49.420578 L1018.43819,48.9163721 L1017.84919,48.6898953 C1017.77594,48.6617199 1016.03335,48 1014.1244,48 C1011.24675,48 1009.509,49.5399881 1009.21758,52.33499 C1008.91544,52.6366012 1008.66186,52.9234539 1008.45416,53.179716 C1008.18475,52.0293538 1007.58207,50.7040356 1006.37267,49.3285383 L1005.3715,50.2086848 C1007.37867,52.491699 1007.42294,54.5487732 1007.2453,55.6331245 C1006.5648,55.466487 1005.57329,55.2824076 1004.50665,55.2824076 C1002.18285,55.2824076 1000.52587,56.1708726 999.714952,57.8514694 C997.884623,61.6417346 999.682484,67.1496272 1003.80763,70.3908742 C1004.32204,70.7949903 1004.89306,71 1005.5054,71 C1006.41748,71 1007.21766,70.5336297 1007.73878,70.1303186 C1008.25962,70.5333613 1009.0598,70.9997317 1009.97215,71 L1009.97268,71 C1010.58476,71 1011.15578,70.7949903 1011.67019,70.3908742 C1015.79561,67.1496272 1017.59347,61.6417346 1015.76314,57.8514694 C1014.95195,56.1708726 1013.29497,55.2824076 1010.97144,55.2824076 C1010.08324,55.2824076 1009.24791,55.4098678 1008.59987,55.5488666 C1008.6522,55.0948398 1008.66508,54.5487732 1008.58914,53.9356224 C1008.78341,53.6662117 1009.05685,53.3211298 1009.41642,52.9414325 C1009.71884,53.3729189 1010.45891,54.1811511 1011.75283,54.1814194 L1011.75283,54.1814194 Z M1014.12413,48.9523293 C1014.66537,48.9523293 1015.19775,49.0135102 1015.67485,49.0972315 C1013.3854,49.4576085 1011.64711,50.3624421 1010.38888,51.3166497 C1010.89523,49.7302393 1012.12475,48.9523293 1014.12413,48.9523293 L1014.12413,48.9523293 Z M1010.19326,52.201358 C1011.56178,51.0198686 1013.69587,49.7814917 1016.75598,49.5448182 C1014.33156,52.5671018 1012.70785,53.2293584 1011.7531,53.2293584 L1011.7531,53.2293584 C1010.83861,53.2293584 1010.33762,52.6132559 1010.17018,52.3596771 C1010.17608,52.3052046 1010.18574,52.2544888 1010.19326,52.201358 L1010.19326,52.201358 Z" id="Apple"></path>
        </g>
    </g>
</svg>